<svg width="16" height="16" viewBox="0 0 16 16" fill="none" xmlns="http://www.w3.org/2000/svg">
<path d="M4.8 1.6C5.24183 1.6 5.6 1.95817 5.6 2.4V4.8C5.6 5.24183 5.24183 5.6 4.8 5.6H2.4C1.95817 5.6 1.6 5.24183 1.6 4.8V2.4C1.6 1.95817 1.95817 1.6 2.4 1.6H4.8ZM2.4 0C1.07452 0 0 1.07452 0 2.4V4.8C0 6.12548 1.07452 7.2 2.4 7.2H4.8C6.12548 7.2 7.2 6.12548 7.2 4.8V2.4C7.2 1.07452 6.12548 0 4.8 0L2.4 0ZM13.6 1.6C14.0418 1.6 14.4 1.95817 14.4 2.4V4.8C14.4 5.24183 14.0418 5.6 13.6 5.6H11.2C10.7582 5.6 10.4 5.24183 10.4 4.8V2.4C10.4 1.95817 10.7582 1.6 11.2 1.6H13.6ZM11.2 0C9.87452 0 8.8 1.07452 8.8 2.4V4.8C8.8 6.12548 9.87452 7.2 11.2 7.2H13.6C14.9255 7.2 16 6.12548 16 4.8V2.4C16 1.07452 14.9255 0 13.6 0L11.2 0ZM4.8 10.4C5.24183 10.4 5.6 10.7582 5.6 11.2V13.6C5.6 14.0418 5.24183 14.4 4.8 14.4H2.4C1.95817 14.4 1.6 14.0418 1.6 13.6V11.2C1.6 10.7582 1.95817 10.4 2.4 10.4H4.8ZM2.4 8.8C1.07452 8.8 0 9.87452 0 11.2V13.6C0 14.9255 1.07452 16 2.4 16H4.8C6.12548 16 7.2 14.9255 7.2 13.6V11.2C7.2 9.87452 6.12548 8.8 4.8 8.8H2.4ZM13.6 10.4C14.0418 10.4 14.4 10.7582 14.4 11.2V13.6C14.4 14.0418 14.0418 14.4 13.6 14.4H11.2C10.7582 14.4 10.4 14.0418 10.4 13.6V11.2C10.4 10.7582 10.7582 10.4 11.2 10.4H13.6ZM11.2 8.8C9.87452 8.8 8.8 9.87452 8.8 11.2V13.6C8.8 14.9255 9.87452 16 11.2 16H13.6C14.9255 16 16 14.9255 16 13.6V11.2C16 9.87452 14.9255 8.8 13.6 8.8H11.2Z" fill="#00A1B3"/>
</svg>
