<svg width="16" height="16" viewBox="0 0 16 16" fill="none" xmlns="http://www.w3.org/2000/svg">
<path d="M10.6582 9.86292C10.6582 9.26865 10.5409 8.68022 10.3132 8.1314C10.0854 7.58257 9.75166 7.08413 9.33101 6.66468C6.39276 3.71477 1.59906 5.99681 1.59906 9.86292C1.59906 10.4583 1.71624 11.0479 1.94392 11.598C2.1716 12.1481 2.50532 12.6479 2.92602 13.0689C3.77565 13.9192 4.92801 14.3969 6.12957 14.3969C7.32899 14.3905 8.47742 13.9107 9.32537 13.0617C10.1733 12.2128 10.6523 11.0633 10.6582 9.86292ZM12.2523 9.55438C12.4329 9.05492 12.5251 8.5278 12.5249 7.99665C12.5244 6.79449 12.0469 5.64174 11.1973 4.79186C10.3477 3.94198 9.19566 3.46455 7.99442 3.46455C7.46135 3.46247 6.93224 3.55614 6.43224 3.74111C7.95103 3.81423 9.38848 4.44963 10.4654 5.52391C11.5423 6.59819 12.1819 8.03467 12.2599 9.55438H12.2523ZM10.4608 14.205C9.31111 15.3548 7.75205 16.0005 6.12664 16C4.50123 15.9995 2.94259 15.3528 1.79363 14.2022C0.644658 13.0516 -0.000528482 11.4913 3.24809e-07 9.86469C0.000529132 8.23803 0.64673 6.67821 1.79645 5.52836C2.1077 5.2169 2.45114 4.93942 2.82098 4.70058C3.06205 4.325 3.34249 3.97623 3.65753 3.66021C3.9801 3.33849 4.33762 3.0539 4.72342 2.81174C4.95756 2.44492 5.23115 2.10489 5.53929 1.7977C6.10795 1.22811 6.78316 0.776188 7.52634 0.467738C8.26952 0.159287 9.06614 0.000349977 9.8707 5.77332e-07C10.6753 -0.000348822 11.472 0.157897 12.2155 0.465702C12.9589 0.773507 13.6345 1.22484 14.2037 1.79394C14.7728 2.36304 15.2244 3.03876 15.5326 3.78251C15.8408 4.52626 15.9997 5.32349 16 6.12866C16.0003 6.93384 15.8422 7.7312 15.5347 8.47522C15.2271 9.21924 14.7761 9.89535 14.2074 10.4649C13.8872 10.7887 13.5316 11.0752 13.1472 11.3191C12.6671 12.0581 12.0368 12.6876 11.2974 13.1665C11.0563 13.5421 10.7758 13.8908 10.4608 14.2069V14.205ZM14.1172 7.72386C14.4202 6.91218 14.4847 6.03063 14.3031 5.18342C14.1214 4.33622 13.7011 3.55878 13.092 2.94302C12.4828 2.32726 11.7102 1.89891 10.8655 1.70862C10.0208 1.51833 9.13933 1.57405 8.32528 1.86919C9.84454 1.95175 11.2788 2.59677 12.3493 3.67883C13.4198 4.7609 14.0499 6.20268 14.1172 7.72386Z" fill="#333333"/>
</svg>
