<svg width="16" height="16" viewBox="0 0 16 16" fill="none" xmlns="http://www.w3.org/2000/svg">
<path d="M7.9467 1.77042e-05C9.5408 0.00107417 11.0988 0.474809 12.4236 1.3613C13.7483 2.24779 14.7804 3.5072 15.3892 4.98023C15.998 6.45326 16.1561 8.07372 15.8437 9.63664C15.5312 11.1996 14.7622 12.6347 13.6338 13.7606C12.1117 15.2187 10.0787 16.0225 7.97081 15.9995C5.86291 15.9766 3.84793 15.1287 2.35795 13.6377C0.867973 12.1467 0.0216307 10.1314 0.000408892 8.02379C-0.0208129 5.91622 0.784775 3.88424 2.24443 2.36357C2.9916 1.61249 3.88024 1.01689 4.85898 0.611208C5.83773 0.205523 6.88719 -0.00220843 7.9467 1.77042e-05ZM8.48319 12.358V12.6328C8.48319 12.8465 8.3983 13.0514 8.24721 13.2024C8.09612 13.3535 7.89119 13.4384 7.67751 13.4384C7.46384 13.4384 7.25891 13.3535 7.10782 13.2024C6.95672 13.0514 6.87184 12.8465 6.87184 12.6328V12.358H5.38371C5.17054 12.358 4.96609 12.2733 4.81536 12.1226C4.66462 11.9719 4.57993 11.7675 4.57993 11.5543C4.57993 11.3412 4.66462 11.1368 4.81536 10.9861C4.96609 10.8354 5.17054 10.7507 5.38371 10.7507H5.6529V5.37346H5.38371C5.17054 5.37346 4.96609 5.28879 4.81536 5.13808C4.66462 4.98736 4.57993 4.78295 4.57993 4.56981C4.57993 4.35667 4.66462 4.15226 4.81536 4.00155C4.96609 3.85084 5.17054 3.76617 5.38371 3.76617H6.87184V3.49323C6.87184 3.27959 6.95672 3.07469 7.10782 2.92362C7.25891 2.77256 7.46384 2.68769 7.67751 2.68769C7.89119 2.68769 8.09612 2.77256 8.24721 2.92362C8.3983 3.07469 8.48319 3.27959 8.48319 3.49323V3.76806H8.60641C8.60641 3.76806 11.0196 3.76806 11.0196 6.1809C11.0442 6.73708 10.8732 7.2843 10.5362 7.72754C10.9666 8.12557 11.304 8.73778 11.304 9.68359C11.3097 12.358 8.61778 12.358 8.60641 12.358H8.4775H8.48319ZM7.26425 5.37346V6.98454H8.60641C8.71341 6.98718 8.81983 6.96795 8.91914 6.92804C9.01846 6.88813 9.10859 6.82838 9.184 6.75244C9.25943 6.6765 9.31855 6.58597 9.35777 6.48639C9.39699 6.38681 9.41547 6.28028 9.41208 6.17332C9.41208 5.39431 8.6538 5.36777 8.60072 5.36777L7.26425 5.37346ZM7.26425 8.59563V10.7507H8.60641C8.64432 10.7507 9.70212 10.7336 9.70212 9.68169C9.70212 8.67713 8.75427 8.60131 8.6121 8.59563H7.26425ZM12.504 3.50271C11.4476 2.45015 10.0588 1.79644 8.57437 1.65299C7.08991 1.50954 5.60164 1.88523 4.36319 2.71603C3.12475 3.54682 2.21278 4.78131 1.78272 6.2091C1.35265 7.63688 1.43111 9.1696 2.00471 10.546C2.57832 11.9225 3.61157 13.0574 4.92838 13.7575C6.24518 14.4575 7.76404 14.6793 9.22609 14.3851C10.6881 14.0909 12.0029 13.2988 12.9463 12.1439C13.8897 10.989 14.4033 9.54278 14.3997 8.05165C14.3984 7.20602 14.2303 6.36895 13.9051 5.58837C13.5798 4.80778 13.1036 4.09903 12.504 3.50271Z" fill="#333333"/>
</svg>
