<svg width="16" height="16" viewBox="0 0 16 16" fill="none" xmlns="http://www.w3.org/2000/svg">
<path d="M8.12063 13.2873L12.1631 9.25245L13.2917 8.12433C14.0038 7.40636 14.4033 6.4363 14.4033 5.42532C14.4033 4.41434 14.0038 3.44428 13.2917 2.7263C12.9377 2.3696 12.5166 2.08632 12.0527 1.89273C11.5889 1.69913 11.0913 1.59904 10.5886 1.59819C9.57393 1.59648 8.59993 1.99672 7.87986 2.71126L6.96001 3.6288L2.71443 7.87803C2.00073 8.59744 1.60029 9.56955 1.60029 10.5827C1.60029 11.5958 2.00073 12.5679 2.71443 13.2873C3.43298 14.0008 4.4047 14.4012 5.41753 14.4012C6.43036 14.4012 7.40208 14.0008 8.12063 13.2873ZM9.06117 6.12945C8.90305 6.12945 8.74849 6.17632 8.61702 6.26412C8.48555 6.35192 8.38308 6.47672 8.32257 6.62274C8.26206 6.76875 8.24623 6.92942 8.27707 7.08442C8.30792 7.23943 8.38406 7.38181 8.49587 7.49357C8.60767 7.60532 8.75012 7.68143 8.9052 7.71226C9.06028 7.74309 9.22103 7.72727 9.36711 7.66679C9.51319 7.60631 9.63805 7.50389 9.72589 7.37248C9.81374 7.24107 9.86063 7.08657 9.86063 6.92853C9.86013 6.71675 9.77574 6.51379 9.62592 6.36404C9.4761 6.21429 9.27305 6.12995 9.06117 6.12945ZM11.7379 6.12945C11.5798 6.12945 11.4253 6.17632 11.2938 6.26412C11.1623 6.35192 11.0598 6.47672 10.9993 6.62274C10.9388 6.76875 10.923 6.92942 10.9538 7.08442C10.9847 7.23943 11.0608 7.38181 11.1726 7.49357C11.2844 7.60532 11.4269 7.68143 11.582 7.71226C11.7371 7.74309 11.8978 7.72727 12.0439 7.66679C12.19 7.60631 12.3148 7.50389 12.4027 7.37248C12.4905 7.24107 12.5374 7.08657 12.5374 6.92853C12.5369 6.71675 12.4525 6.51379 12.3027 6.36404C12.1529 6.21429 11.9498 6.12995 11.7379 6.12945ZM9.06493 3.46522C8.90681 3.46522 8.75225 3.51209 8.62078 3.59989C8.48931 3.68769 8.38684 3.81249 8.32633 3.95851C8.26582 4.10452 8.24999 4.26519 8.28084 4.42019C8.31168 4.5752 8.38783 4.71758 8.49963 4.82934C8.61144 4.94109 8.75389 5.0172 8.90897 5.04803C9.06404 5.07886 9.22479 5.06304 9.37087 5.00256C9.51695 4.94208 9.64181 4.83965 9.72966 4.70825C9.8175 4.57684 9.86439 4.42234 9.86439 4.2643C9.86389 4.05252 9.7795 3.84956 9.62968 3.69981C9.47987 3.55006 9.27681 3.46572 9.06493 3.46522ZM11.7304 3.46522C11.5723 3.46522 11.4177 3.51209 11.2863 3.59989C11.1548 3.68769 11.0523 3.81249 10.9918 3.95851C10.9313 4.10452 10.9155 4.26519 10.9463 4.42019C10.9772 4.5752 11.0533 4.71758 11.1651 4.82934C11.2769 4.94109 11.4194 5.0172 11.5744 5.04803C11.7295 5.07886 11.8903 5.06304 12.0364 5.00256C12.1824 4.94208 12.3073 4.83965 12.3951 4.70825C12.483 4.57684 12.5299 4.42234 12.5299 4.2643C12.5294 4.05252 12.445 3.84956 12.2952 3.69981C12.1453 3.55006 11.9423 3.46572 11.7304 3.46522ZM7.24029 11.4372C7.37573 11.5896 7.44782 11.7879 7.44183 11.9916C7.43583 12.1953 7.35219 12.389 7.20802 12.5331C7.06385 12.6772 6.87004 12.7608 6.66624 12.7668C6.46244 12.7728 6.26405 12.7007 6.11165 12.5653L5.33852 11.7926L4.57669 12.5541C4.50274 12.6284 4.41481 12.6874 4.31797 12.7277C4.22112 12.768 4.11726 12.7887 4.01237 12.7887C3.90747 12.7887 3.80362 12.768 3.70677 12.7277C3.60992 12.6874 3.52199 12.6284 3.44805 12.5541C3.30008 12.4036 3.21716 12.201 3.21716 11.99C3.21716 11.779 3.30008 11.5764 3.44805 11.4259L4.20988 10.6645L3.44805 9.90299C3.31261 9.75066 3.24051 9.55236 3.24651 9.34866C3.25251 9.14496 3.33615 8.95124 3.48032 8.80714C3.62449 8.66303 3.8183 8.57944 4.0221 8.57344C4.2259 8.56744 4.42429 8.6395 4.57669 8.77488L5.33852 9.53636L6.11165 8.7636C6.18402 8.6822 6.27227 8.61645 6.37099 8.57038C6.4697 8.5243 6.5768 8.49889 6.6857 8.49568C6.7946 8.49248 6.903 8.51156 7.00426 8.55174C7.10552 8.59193 7.19749 8.65238 7.27452 8.72938C7.35156 8.80638 7.41204 8.89831 7.45224 8.99952C7.49245 9.10073 7.51154 9.20908 7.50833 9.31793C7.50513 9.42678 7.4797 9.53382 7.4336 9.63249C7.38751 9.73116 7.32173 9.81937 7.24029 9.89171L6.46717 10.6645L7.24029 11.4372ZM0.240814 1.37069C0.105374 1.21836 0.0332799 1.02006 0.0392792 0.816355C0.0452785 0.612651 0.128918 0.418935 0.273088 0.274832C0.417259 0.130729 0.611066 0.0471289 0.814866 0.0411324C1.01867 0.0351359 1.21706 0.107196 1.36946 0.242573L4.72906 3.59683L5.83137 2.4988L6.74933 1.58127C7.25383 1.07781 7.85288 0.67895 8.51207 0.407592C9.17126 0.136233 9.87758 -0.00227366 10.5905 2.82271e-05C11.9061 0.000556704 13.1766 0.479757 14.1645 1.34813H14.1815L14.4166 1.58315C15.4307 2.60083 16 3.97865 16 5.41498C16 6.8513 15.4307 8.22912 14.4166 9.24681L13.2879 10.3749L9.25116 14.4173C8.233 15.4309 6.85453 16 5.41753 16C3.98053 16 2.60206 15.4309 1.5839 14.4173C0.569494 13.3987 0 12.0199 0 10.5827C0 9.14543 0.569494 7.76668 1.5839 6.74803L3.59853 4.73247L0.240814 1.37069Z" fill="#333333"/>
</svg>
