<svg width="126" height="30" viewBox="0 0 126 30" fill="none" xmlns="http://www.w3.org/2000/svg">
<path d="M31 22.202H41.2183V19.6136H35.2779L38.5421 16.7622C39.1233 16.2567 39.6133 15.805 40.012 15.4073C40.4107 15.0029 40.7115 14.5647 40.9142 14.0929C41.117 13.6143 41.2183 13.0144 41.2183 12.2931C41.2183 11.3157 41.0021 10.4563 40.5696 9.71477C40.137 8.97329 39.5423 8.39696 38.7854 7.98577C38.0352 7.56785 37.1837 7.35889 36.2308 7.35889C35.1901 7.35889 34.2777 7.55774 33.4938 7.95544C32.7098 8.35315 32.0982 8.916 31.6589 9.644C31.2196 10.372 31 11.2348 31 12.2324H33.8384C33.8249 11.828 33.9161 11.4539 34.1121 11.1101C34.3081 10.7596 34.5818 10.4798 34.9333 10.2709C35.2914 10.0552 35.7037 9.94733 36.17 9.94733C36.8391 9.94733 37.3729 10.1664 37.7717 10.6046C38.1772 11.036 38.3799 11.5853 38.3799 12.2527C38.3799 12.5627 38.2853 12.8964 38.0961 13.2537C37.9068 13.6109 37.5824 13.9918 37.1229 14.3962L31 19.8158V22.202Z" fill="white"/>
<path d="M49.9063 22.5256C51.5823 22.5256 52.988 22.111 54.1234 21.2819C55.2655 20.4528 56.0697 19.3304 56.536 17.9149L53.7584 17.1464C53.4881 18.0227 53.0319 18.7069 52.3899 19.199C51.7479 19.6911 50.92 19.9371 49.9063 19.9371C48.5208 19.9371 47.4767 19.4855 46.7739 18.5822C46.0778 17.6722 45.7297 16.4589 45.7297 14.9422C45.7297 13.4256 46.0778 12.2156 46.7739 11.3123C47.4767 10.4023 48.5208 9.94733 49.9063 9.94733C50.92 9.94733 51.7479 10.1934 52.3899 10.6854C53.0319 11.1708 53.4881 11.855 53.7584 12.738L56.536 11.9696C56.0697 10.554 55.2655 9.43166 54.1234 8.60255C52.988 7.77344 51.5823 7.35889 49.9063 7.35889C48.4465 7.35889 47.1861 7.6757 46.1251 8.30933C45.0708 8.94296 44.2564 9.82937 43.682 10.9686C43.1143 12.1077 42.8305 13.4323 42.8305 14.9422C42.8305 16.4521 43.1143 17.7767 43.682 18.9159C44.2564 20.0551 45.0708 20.9415 46.1251 21.5751C47.1861 22.2087 48.4465 22.5256 49.9063 22.5256Z" fill="white"/>
<path d="M61.8093 22.5256C62.6541 22.5256 63.3637 22.3975 63.9381 22.1413C64.5193 21.8784 65.0532 21.4605 65.5398 20.8876V22.2222H67.9525V15.5489C67.9525 15.0501 67.9322 14.5984 67.8916 14.194C67.8511 13.7896 67.7227 13.3851 67.5064 12.9807C67.1212 12.2527 66.5535 11.7404 65.8034 11.4438C65.0532 11.1472 64.1949 10.9989 63.2285 10.9989C61.9107 10.9989 60.8699 11.282 60.1062 11.8482C59.3426 12.4144 58.8222 13.1492 58.5451 14.0524L61.0389 14.8411C61.2146 14.3423 61.5221 13.9951 61.9614 13.7997C62.4006 13.6042 62.823 13.5064 63.2285 13.5064C63.8773 13.5064 64.3605 13.6278 64.6781 13.8704C64.9958 14.1064 65.1816 14.4805 65.2357 14.9928C64.2084 15.1411 63.3028 15.286 62.5189 15.4276C61.735 15.5624 61.0794 15.7241 60.5523 15.9129C59.6737 16.2364 59.0553 16.678 58.6972 17.2374C58.339 17.7902 58.1599 18.4474 58.1599 19.2091C58.1599 19.8158 58.2984 20.3719 58.5755 20.8774C58.8594 21.3763 59.2716 21.7773 59.8123 22.0807C60.3597 22.3773 61.0253 22.5256 61.8093 22.5256ZM62.3973 20.3618C61.9242 20.3618 61.5491 20.2573 61.272 20.0483C60.9949 19.8326 60.8564 19.5394 60.8564 19.1687C60.8564 18.8923 60.9442 18.6564 61.12 18.4609C61.2957 18.2587 61.5863 18.0767 61.9918 17.9149C62.3026 17.8003 62.6845 17.6958 63.1373 17.6014C63.5968 17.5003 64.2895 17.3723 65.2154 17.2172C65.2086 17.4801 65.1884 17.77 65.1546 18.0868C65.1208 18.3968 65.0465 18.6698 64.9316 18.9058C64.8572 19.0608 64.7153 19.2529 64.5058 19.4821C64.3031 19.7113 64.026 19.9169 63.6745 20.0989C63.3299 20.2741 62.9041 20.3618 62.3973 20.3618Z" fill="white"/>
<path d="M70.568 27.0756H73.3456V21.8279C73.7038 22.0503 74.0992 22.2222 74.5317 22.3436C74.971 22.4649 75.4474 22.5256 75.961 22.5256C76.968 22.5256 77.8499 22.2728 78.6069 21.7672C79.3638 21.2617 79.9517 20.5741 80.3707 19.7046C80.7965 18.835 81.0094 17.8542 81.0094 16.7622C81.0094 15.65 80.7931 14.6625 80.3606 13.7997C79.9348 12.9301 79.3334 12.2459 78.5562 11.7471C77.779 11.2483 76.8666 10.9989 75.8191 10.9989C75.2514 10.9989 74.7311 11.0798 74.258 11.2416C73.7917 11.3966 73.3727 11.619 73.001 11.9089V11.3022H70.568V27.0756ZM75.515 20.0787C74.5959 20.0787 73.9471 19.7753 73.5687 19.1687C73.1902 18.5553 73.001 17.7531 73.001 16.7622C73.001 15.7713 73.1868 14.9726 73.5585 14.3659C73.937 13.7525 74.5553 13.4458 75.4136 13.4458C76.0286 13.4458 76.5321 13.5974 76.9241 13.9008C77.3228 14.1974 77.6168 14.5984 77.806 15.104C77.9952 15.6028 78.0899 16.1556 78.0899 16.7622C78.0899 17.3756 77.9986 17.9351 77.8162 18.4407C77.6337 18.9395 77.3532 19.3372 76.9748 19.6338C76.5963 19.9304 76.1097 20.0787 75.515 20.0787Z" fill="white"/>
<path d="M89.809 22.2222V19.9371C89.1602 20.0247 88.5689 20.0517 88.035 20.018C87.5011 19.9843 87.1125 19.7753 86.8692 19.3911C86.7408 19.1889 86.6698 18.9193 86.6563 18.5822C86.6495 18.2384 86.6462 17.8542 86.6462 17.4296V13.4256H89.809V11.3022H86.6462V8.26889H83.8888V11.3022H82.0236V13.4256H83.8888V17.5913C83.8888 18.2452 83.8956 18.8316 83.9091 19.3507C83.9226 19.863 84.0646 20.3685 84.3349 20.8673C84.6322 21.3998 85.0648 21.7874 85.6324 22.0301C86.2069 22.266 86.8557 22.3907 87.5788 22.4042C88.3087 22.4244 89.0521 22.3638 89.809 22.2222Z" fill="white"/>
<path d="M96.4603 22.5256C97.7308 22.5256 98.7986 22.2121 99.6637 21.5852C100.529 20.9583 101.117 20.0652 101.428 18.9058L98.6094 18.3193C98.4472 18.8451 98.2039 19.2496 97.8795 19.5327C97.5551 19.8158 97.082 19.9573 96.4603 19.9573C95.629 19.9573 95.0005 19.6641 94.5748 19.0777C94.1558 18.4845 93.9463 17.7127 93.9463 16.7622C93.9463 15.8522 94.1456 15.0939 94.5443 14.4872C94.9498 13.8738 95.5885 13.5671 96.4603 13.5671C96.9671 13.5671 97.4199 13.7255 97.8187 14.0423C98.2242 14.3591 98.508 14.8007 98.6702 15.3669L101.428 14.6389C101.184 13.5132 100.623 12.6268 99.7448 11.9797C98.8729 11.3258 97.7916 10.9989 96.5008 10.9989C95.3857 10.9989 94.4193 11.2483 93.6016 11.7471C92.7838 12.2459 92.1486 12.9301 91.6958 13.7997C91.2497 14.6692 91.0267 15.6567 91.0267 16.7622C91.0267 17.8542 91.243 18.835 91.6755 19.7046C92.108 20.5741 92.7298 21.2617 93.5408 21.7672C94.3517 22.2728 95.3249 22.5256 96.4603 22.5256Z" fill="white"/>
<path d="M103.435 22.2222H106.233V16.6813C106.233 16.0005 106.307 15.4545 106.456 15.0433C106.611 14.6321 106.807 14.3221 107.044 14.1131C107.28 13.8974 107.534 13.7525 107.804 13.6783C108.074 13.6042 108.328 13.5671 108.564 13.5671C109.152 13.5671 109.605 13.6986 109.923 13.9614C110.247 14.2243 110.48 14.5513 110.622 14.9422C110.764 15.3332 110.849 15.7241 110.876 16.1151C110.903 16.4993 110.916 16.8161 110.916 17.0656V22.2222H113.714V16.0949C113.714 15.9129 113.701 15.623 113.673 15.2253C113.646 14.8276 113.569 14.3895 113.44 13.9109C113.312 13.4256 113.096 12.9604 112.792 12.5156C112.494 12.0707 112.075 11.7033 111.535 11.4134C110.994 11.1236 110.294 10.9787 109.436 10.9787C108.645 10.9787 107.956 11.1101 107.368 11.373C106.78 11.6359 106.287 11.9864 105.888 12.4246V7.66222H103.435V22.2222Z" fill="white"/>
<path d="M119.386 22.5256C120.23 22.5256 120.94 22.3975 121.514 22.1413C122.096 21.8784 122.63 21.4605 123.116 20.8876V22.2222H125.529V15.5489C125.529 15.0501 125.509 14.5984 125.468 14.194C125.427 13.7896 125.299 13.3851 125.083 12.9807C124.698 12.2527 124.13 11.7404 123.38 11.4438C122.63 11.1472 121.771 10.9989 120.805 10.9989C119.487 10.9989 118.446 11.282 117.683 11.8482C116.919 12.4144 116.399 13.1492 116.121 14.0524L118.615 14.8411C118.791 14.3423 119.098 13.9951 119.538 13.7997C119.977 13.6042 120.399 13.5064 120.805 13.5064C121.454 13.5064 121.937 13.6278 122.254 13.8704C122.572 14.1064 122.758 14.4805 122.812 14.9928C121.785 15.1411 120.879 15.286 120.095 15.4276C119.311 15.5624 118.656 15.7241 118.129 15.9129C117.25 16.2364 116.632 16.678 116.274 17.2374C115.915 17.7902 115.736 18.4474 115.736 19.2091C115.736 19.8158 115.875 20.3719 116.152 20.8774C116.436 21.3763 116.848 21.7773 117.389 22.0807C117.936 22.3773 118.602 22.5256 119.386 22.5256ZM119.974 20.3618C119.501 20.3618 119.125 20.2573 118.848 20.0483C118.571 19.8326 118.433 19.5394 118.433 19.1687C118.433 18.8923 118.521 18.6564 118.696 18.4609C118.872 18.2587 119.163 18.0767 119.568 17.9149C119.879 17.8003 120.261 17.6958 120.714 17.6014C121.173 17.5003 121.866 17.3723 122.792 17.2172C122.785 17.4801 122.765 17.77 122.731 18.0868C122.697 18.3968 122.623 18.6698 122.508 18.9058C122.434 19.0608 122.292 19.2529 122.082 19.4821C121.879 19.7113 121.602 19.9169 121.251 20.0989C120.906 20.2741 120.48 20.3618 119.974 20.3618Z" fill="white"/>
<path fill-rule="evenodd" clip-rule="evenodd" d="M10.4646 9.47005C16.2626 9.47005 21 14.1014 21 19.7696C21 25.3687 16.2626 30 10.4646 30C4.66667 30 0 25.3687 0 19.7696C0 14.1014 4.66667 9.47005 10.4646 9.47005ZM2.61616 11.1982C2.61616 11.1982 3.25253 10.6452 3.81818 10.2304C4.38384 9.81567 5.0202 9.47005 5.0202 9.47005C5.0202 9.47005 5.09091 4.49309 5.0202 3.73272C5.0202 3.04147 5.65657 2.41935 6.43434 2.41935C7.28283 2.41935 13.8586 2.41935 14.4949 2.41935C15.202 2.41935 15.9091 3.04147 15.9091 3.87097C15.9091 4.70046 15.9091 6.08295 15.9091 6.08295L18.3838 6.15207C18.3838 6.15207 18.3838 5.25346 18.3838 3.73272C18.3838 2.14286 17.0404 0 14.4949 0C11.8788 0 9.40404 0 6.71717 0C3.9596 0 2.54545 2.00461 2.54545 3.80184C2.54545 5.6682 2.61616 11.1982 2.61616 11.1982ZM10.4646 13.6175C13.9293 13.6175 16.7576 16.3825 16.7576 19.7696C16.7576 23.0876 13.9293 25.8525 10.4646 25.8525C7.07071 25.8525 4.24242 23.0876 4.24242 19.7696C4.24242 16.3825 7.07071 13.6175 10.4646 13.6175ZM10.4646 16.3134C11.6667 16.3134 12.6566 17.212 12.6566 18.3871C12.6566 19.0783 12.2323 19.7696 11.7374 20.1152V23.1567H9.26263V20.1152C8.69697 19.7696 8.34343 19.0783 8.34343 18.3871C8.34343 17.212 9.33333 16.3134 10.4646 16.3134ZM10.4646 11.8894C14.9192 11.8894 18.5253 15.4147 18.5253 19.7696C18.5253 24.0553 14.9192 27.5806 10.4646 27.5806C6.0101 27.5806 2.40404 24.0553 2.40404 19.7696C2.40404 15.4147 6.0101 11.8894 10.4646 11.8894Z" fill="#3BBBBC"/>
</svg>
