<svg width="16" height="16" viewBox="0 0 16 16" fill="none" xmlns="http://www.w3.org/2000/svg">
<path d="M7.998 2.10088e-05C9.84881 -0.00044203 11.6425 0.640841 13.0735 1.81461C14.5045 2.98837 15.4843 4.622 15.8458 6.43714C16.2074 8.25229 15.9284 10.1367 15.0564 11.7692C14.1844 13.4017 12.7734 14.6813 11.0637 15.3901C9.35394 16.0989 7.45136 16.193 5.68009 15.6562C3.90881 15.1195 2.37842 13.9853 1.34968 12.4467C0.32093 10.9081 -0.142525 9.06047 0.0382751 7.21851C0.219075 5.37656 1.03294 3.65427 2.34121 2.3451C3.0823 1.59972 3.96382 1.00867 4.93479 0.606144C5.90576 0.203618 6.9469 -0.00239515 7.998 2.10088e-05ZM11.4733 6.92996C11.6842 6.92996 11.8904 6.9925 12.0657 7.10966C12.2411 7.22683 12.3777 7.39336 12.4584 7.5882C12.5391 7.78304 12.5603 7.99743 12.5191 8.20427C12.478 8.41111 12.3764 8.6011 12.2273 8.75023C12.0782 8.89935 11.8882 9.00091 11.6813 9.04205C11.4745 9.08319 11.2601 9.06207 11.0653 8.98137C10.8704 8.90067 10.7039 8.764 10.5867 8.58865C10.4696 8.4133 10.407 8.20714 10.407 7.99625C10.407 7.71345 10.5194 7.44224 10.7193 7.24227C10.9193 7.0423 11.1905 6.92996 11.4733 6.92996ZM7.998 6.92996C8.20889 6.92996 8.41505 6.9925 8.5904 7.10966C8.76575 7.22683 8.90242 7.39336 8.98312 7.5882C9.06383 7.78304 9.08494 7.99743 9.0438 8.20427C9.00266 8.41111 8.9011 8.6011 8.75198 8.75023C8.60286 8.89935 8.41286 9.00091 8.20602 9.04205C7.99918 9.08319 7.78479 9.06207 7.58995 8.98137C7.39511 8.90067 7.22858 8.764 7.11141 8.58865C6.99425 8.4133 6.93171 8.20714 6.93171 7.99625C6.9327 7.71376 7.04536 7.44312 7.24511 7.24336C7.44487 7.04361 7.71551 6.93095 7.998 6.92996ZM4.54337 6.92996C4.75426 6.92996 4.96042 6.9925 5.13577 7.10966C5.31112 7.22683 5.44779 7.39336 5.5285 7.5882C5.6092 7.78304 5.63032 7.99743 5.58917 8.20427C5.54803 8.41111 5.44648 8.6011 5.29735 8.75023C5.14823 8.89935 4.95824 9.00091 4.7514 9.04205C4.54456 9.08319 4.33016 9.06207 4.13532 8.98137C3.94048 8.90067 3.77395 8.764 3.65679 8.58865C3.53962 8.4133 3.47708 8.20714 3.47708 7.99625C3.47808 7.71376 3.59073 7.44312 3.79049 7.24336C3.99024 7.04361 4.26088 6.93095 4.54337 6.92996ZM12.5189 3.47533C11.471 2.431 10.0933 1.7824 8.62065 1.64007C7.14804 1.49774 5.67164 1.8705 4.44307 2.6948C3.21451 3.51911 2.30982 4.74395 1.88319 6.16057C1.45655 7.5772 1.53438 9.09794 2.10341 10.4636C2.67244 11.8293 3.69745 12.9554 5.00375 13.6499C6.31005 14.3445 7.81679 14.5646 9.26718 14.2727C10.7176 13.9807 12.0218 13.1949 12.9577 12.049C13.8936 10.9031 14.4031 9.4682 14.3995 7.98873C14.3983 7.14971 14.2315 6.31917 13.9088 5.54469C13.5861 4.77021 13.1138 4.067 12.5189 3.47533Z" fill="#333333"/>
</svg>
