<svg width="16" height="16" viewBox="0 0 16 16" fill="none" xmlns="http://www.w3.org/2000/svg">
<path d="M10.0653 0.470898C10.358 0.492512 10.6493 0.413552 10.891 0.247081L10.9023 0.235796C11.0528 0.0878475 11.2555 0.00494565 11.4665 0.00494565C11.6776 0.00494565 11.8802 0.0878475 12.0308 0.235796L15.7642 3.96921C15.9132 4.11851 15.9979 4.32023 16 4.53116C16.0021 4.74209 15.9215 4.94546 15.7755 5.0977C15.7755 5.0977 15.531 5.33845 15.531 5.94595C15.5098 6.23742 15.5887 6.52739 15.7548 6.76787L15.7661 6.77915C15.914 6.9297 15.9969 7.13232 15.9969 7.3434C15.9969 7.55447 15.914 7.7571 15.7661 7.90764L7.9024 15.7619C7.75382 15.9123 7.55185 15.9978 7.34048 16C7.1291 16.0021 6.92546 15.9206 6.77391 15.7732C6.77391 15.7732 6.53316 15.5325 5.92566 15.5325C5.63521 15.5134 5.34651 15.59 5.10374 15.7506L5.09246 15.7619C5.01852 15.8363 4.9306 15.8953 4.83377 15.9356C4.73694 15.9759 4.63309 15.9966 4.52821 15.9966C4.42334 15.9966 4.31949 15.9759 4.22266 15.9356C4.12582 15.8953 4.03791 15.8363 3.96397 15.7619L0.238074 12.0304C0.0877114 11.8818 0.00215384 11.6798 4.01111e-05 11.4685C-0.00207362 11.2571 0.0794277 11.0535 0.226789 10.9019C0.226789 10.9019 0.467533 10.6668 0.467533 10.0593C0.48687 9.76763 0.410247 9.47766 0.249359 9.23362L0.238074 9.22233C0.163692 9.14839 0.104663 9.06048 0.0643828 8.96364C0.0241026 8.86681 0.00336608 8.76297 0.00336608 8.65809C0.00336608 8.55321 0.0241026 8.44936 0.0643828 8.35253C0.104663 8.2557 0.163692 8.16778 0.238074 8.09384L8.10364 0.235796C8.25294 0.0867772 8.45466 0.00214969 8.66559 4.03918e-05C8.87652 -0.00206891 9.07989 0.0785078 9.23213 0.224511C9.23213 0.224511 9.46723 0.469017 10.0747 0.469017L10.0653 0.470898ZM8.50238 4.29836C8.42799 4.22442 8.36897 4.1365 8.32869 4.03967C8.28841 3.94283 8.26767 3.83899 8.26767 3.73411C8.26767 3.62923 8.28841 3.52539 8.32869 3.42856C8.36897 3.33172 8.42799 3.24381 8.50238 3.16987C8.65292 3.02192 8.85555 2.93902 9.06662 2.93902C9.27769 2.93902 9.48032 3.02192 9.63087 3.16987L12.8283 6.36725C12.9762 6.5178 13.0591 6.72043 13.0591 6.9315C13.0591 7.14257 12.9762 7.3452 12.8283 7.49574C12.7543 7.57013 12.6664 7.62915 12.5696 7.66943C12.4727 7.70971 12.3689 7.73045 12.264 7.73045C12.1591 7.73045 12.0553 7.70971 11.9585 7.66943C11.8616 7.62915 11.7737 7.57013 11.6998 7.49574L8.50238 4.29836ZM3.17026 9.63047C3.09588 9.55653 3.03685 9.46862 2.99657 9.37178C2.95629 9.27495 2.93556 9.1711 2.93556 9.06622C2.93556 8.96135 2.95629 8.8575 2.99657 8.76067C3.03685 8.66383 3.09588 8.57592 3.17026 8.50198C3.32081 8.35403 3.52344 8.27113 3.73451 8.27113C3.94558 8.27113 4.14821 8.35403 4.29875 8.50198L7.49614 11.6994C7.64409 11.8499 7.72699 12.0525 7.72699 12.2636C7.72699 12.4747 7.64409 12.6773 7.49614 12.8279C7.4222 12.9022 7.33429 12.9613 7.23745 13.0015C7.14062 13.0418 7.03677 13.0626 6.9319 13.0626C6.82702 13.0626 6.72317 13.0418 6.62634 13.0015C6.5295 12.9613 6.44159 12.9022 6.36765 12.8279L3.17026 9.63047ZM11.3386 1.81004C10.9369 1.98461 10.5034 2.07426 10.0653 2.07335C9.62671 2.07398 9.19265 1.98435 8.79014 1.81004L1.80667 8.79351C1.98446 9.1943 2.07486 9.62837 2.07187 10.0668C2.07542 10.5049 1.98633 10.9389 1.81044 11.3401L4.65799 14.1933C5.06071 14.021 5.4942 13.9321 5.93224 13.9321C6.37029 13.9321 6.80378 14.021 7.20649 14.1933L14.1975 7.20422C14.0207 6.80454 13.9316 6.37166 13.9361 5.93467C13.9319 5.49649 14.021 5.06244 14.1975 4.66135L11.3386 1.81004Z" fill="#333333"/>
</svg>
