<svg width="16" height="16" viewBox="0 0 16 16" fill="none" xmlns="http://www.w3.org/2000/svg">
<path d="M8.01584 0C10.202 0 12.198 0.887129 13.6554 2.34455C15.1129 3.80198 16 5.79802 16 8.01584C16 10.202 15.1129 12.198 13.6554 13.6554C12.198 15.1129 10.202 16 8.01584 16C5.79802 16 3.80198 15.1129 2.34455 13.6554C0.887129 12.198 0 10.202 0 8.01584C0 5.79802 0.887129 3.80198 2.34455 2.34455C3.80198 0.887129 5.79802 0 8.01584 0ZM8.01584 3.2C8.42772 3.2 8.80792 3.54851 8.80792 3.99208V7.19208H12.0079C12.4515 7.19208 12.8 7.57228 12.8 8.01584C12.8 8.42772 12.4515 8.80792 12.0079 8.80792H8.80792V12.0079C8.80792 12.4515 8.42772 12.8 8.01584 12.8C7.57228 12.8 7.19208 12.4515 7.19208 12.0079V8.80792H3.99208C3.54851 8.80792 3.2 8.42772 3.2 8.01584C3.2 7.57228 3.54851 7.19208 3.99208 7.19208H7.19208V3.99208C7.19208 3.54851 7.57228 3.2 8.01584 3.2ZM12.5149 3.48515C11.3743 2.31287 9.75842 1.61584 8.01584 1.61584C6.24158 1.61584 4.62574 2.31287 3.48515 3.48515C2.31287 4.62574 1.61584 6.24158 1.61584 8.01584C1.61584 9.75842 2.31287 11.3743 3.48515 12.5149C4.62574 13.6871 6.24158 14.4158 8.01584 14.4158C9.75842 14.4158 11.3743 13.6871 12.5149 12.5149C13.6871 11.3743 14.4158 9.75842 14.4158 8.01584C14.4158 6.24158 13.6871 4.62574 12.5149 3.48515Z" fill="#00A1B3"/>
</svg>
