<svg width="16" height="16" viewBox="0 0 16 16" fill="none" xmlns="http://www.w3.org/2000/svg">
<path fill-rule="evenodd" clip-rule="evenodd" d="M6.65317 6.41362C7.01334 6.34628 7.37322 6.53226 7.52665 6.865L10.2649 12.8034L10.2791 12.8463C10.3578 13.0843 10.4 13.338 10.4 13.6C10.4 14.9255 9.32554 16 8.00007 16C6.6746 16 5.6001 14.9255 5.6001 13.6V13.575L6.00174 7.15008C6.02461 6.78438 6.29299 6.48095 6.65317 6.41362ZM7.40086 10.4132L7.20035 13.6208C7.21135 14.053 7.56519 14.4 8.00007 14.4C8.4419 14.4 8.80007 14.0418 8.80007 13.6C8.80007 13.5243 8.78976 13.4521 8.77084 13.3842L7.40086 10.4132Z" fill="#333333"/>
<path fill-rule="evenodd" clip-rule="evenodd" d="M4.98033 0.430828C5.40515 0.309448 5.84793 0.555443 5.96931 0.980272L6.7693 3.78028C6.89068 4.20511 6.64469 4.6479 6.21987 4.76928C5.79504 4.89066 5.35226 4.64466 5.23088 4.21983L4.43089 1.41983C4.30951 0.994998 4.5555 0.552208 4.98033 0.430828Z" fill="#333333"/>
<path fill-rule="evenodd" clip-rule="evenodd" d="M1.89609 3.26609L3.08026 5.17892C3.31282 5.55458 3.19681 6.04765 2.82115 6.28022C2.44549 6.51278 1.95242 6.39678 1.71986 6.02111L0.119877 3.43659C-0.105496 3.07254 -0.0042773 2.59557 0.349527 2.35443C2.52948 0.868648 5.16451 0 8 0C10.8355 0 13.4705 0.868648 15.6505 2.35443C16.0043 2.59557 16.1055 3.07254 15.8801 3.43659L14.2801 6.02111C14.0476 6.39678 13.5545 6.51278 13.1789 6.28022C12.8032 6.04765 12.6872 5.55458 12.9197 5.17892L14.1039 3.26609C12.316 2.20755 10.2299 1.6 8 1.6C5.7701 1.6 3.68401 2.20755 1.89609 3.26609Z" fill="#333333"/>
<path fill-rule="evenodd" clip-rule="evenodd" d="M8.00016 4.80002C6.12842 4.80002 4.39536 5.38349 2.96986 6.3785C2.60756 6.63138 2.10886 6.54269 1.85598 6.18038C1.6031 5.81808 1.6918 5.31938 2.05409 5.06649C3.73946 3.89009 5.79042 3.20001 8.00016 3.20001C10.2077 3.20001 12.2569 3.88875 13.9413 5.06306C14.3037 5.31573 14.3927 5.81439 14.14 6.17683C13.8874 6.53928 13.3887 6.62827 13.0263 6.37559C11.6016 5.38236 9.87007 4.80002 8.00016 4.80002Z" fill="#333333"/>
</svg>
