<svg width="16" height="16" viewBox="0 0 16 16" fill="none" xmlns="http://www.w3.org/2000/svg">
<path d="M0.8 14.4075H15.2075C15.4182 14.41 15.6195 14.4953 15.7678 14.645C15.9161 14.7947 15.9995 14.9968 16 15.2075C15.998 15.4171 15.9139 15.6175 15.7657 15.7657C15.6175 15.9139 15.4171 15.998 15.2075 16H0.8C0.589274 15.9995 0.387207 15.9161 0.237498 15.7678C0.0877892 15.6195 0.00247276 15.4182 0 15.2075C0.00147886 14.9958 0.0862392 14.7932 0.235949 14.6435C0.385659 14.4938 0.588284 14.409 0.8 14.4075ZM4.26918 3.2C4.47987 3.20038 4.68573 3.2631 4.86083 3.38028C5.03593 3.49745 5.17244 3.66382 5.25315 3.85844C5.33386 4.05306 5.35516 4.26721 5.31437 4.47391C5.27358 4.68061 5.17253 4.87062 5.02394 5.01999C4.87536 5.16936 4.68588 5.27142 4.4794 5.31329C4.27291 5.35517 4.05865 5.33499 3.86361 5.25531C3.66857 5.17563 3.50148 5.04 3.38339 4.86552C3.2653 4.69104 3.20149 4.48551 3.2 4.27482C3.1985 4.13373 3.22509 3.99376 3.27822 3.86305C3.33135 3.73233 3.40996 3.6135 3.50946 3.51347C3.60897 3.41344 3.72739 3.3342 3.85782 3.28039C3.98825 3.22657 4.12808 3.19924 4.26918 3.2ZM0.8 0H15.2075C15.4182 0.00247276 15.6195 0.0877892 15.7678 0.237498C15.9161 0.387207 15.9995 0.589274 16 0.8V12.0056C15.9985 12.2155 15.9146 12.4165 15.7664 12.565C15.6181 12.7136 15.4174 12.798 15.2075 12.8H0.8C0.588802 12.8 0.38617 12.7165 0.236302 12.5677C0.086434 12.4189 0.00149081 12.2168 0 12.0056L0 0.8C0.000497119 0.58798 0.0849422 0.384785 0.234864 0.234864C0.384785 0.0849422 0.58798 0.000497119 0.8 0ZM1.6 10.0744L5.83529 5.83529C5.90929 5.76085 5.99728 5.70177 6.09419 5.66146C6.19111 5.62115 6.29504 5.60039 6.4 5.60039C6.50496 5.60039 6.60889 5.62115 6.70581 5.66146C6.80272 5.70177 6.89071 5.76085 6.96471 5.83529L8.53271 7.39953L11.7064 4.24282C11.7804 4.16838 11.8683 4.1093 11.9653 4.06899C12.0622 4.02868 12.1661 4.00792 12.2711 4.00792C12.376 4.00792 12.48 4.02868 12.5769 4.06899C12.6738 4.1093 12.7618 4.16838 12.8358 4.24282L14.4038 5.80706V1.6H1.6V10.0744ZM14.4 8.06777L14.368 8.04141L12.2729 5.93882L9.10306 9.10871C8.95239 9.25677 8.7496 9.33974 8.53835 9.33974C8.32711 9.33974 8.12431 9.25677 7.97365 9.10871L6.4 7.53882L2.73694 11.2056H14.4075L14.4 8.06777Z" fill="#333333"/>
</svg>
