<svg width="16" height="16" viewBox="0 0 16 16" fill="none" xmlns="http://www.w3.org/2000/svg">
<path d="M5.63915 0.107236C5.98393 -0.0918267 6.42262 -0.00707676 6.66841 0.306095L8.07568 2.09891C8.18294 2.0923 8.29101 2.08894 8.39982 2.08894C8.50868 2.08894 8.61682 2.0923 8.72415 2.09892L10.1314 0.30611C10.3772 -0.00706115 10.8159 -0.0918111 11.1607 0.107251L13.2391 1.30725C13.5839 1.50631 13.7299 1.92861 13.5816 2.29806L12.7327 4.41297C12.8522 4.59262 12.9608 4.7802 13.0576 4.97479L15.313 5.29698C15.7071 5.35329 15.9998 5.69082 15.9998 6.08893V8.48893C15.9998 8.88707 15.7071 9.2246 15.313 9.28087L13.0576 9.60307C12.9608 9.79774 12.8521 9.98533 12.7326 10.165L13.5816 12.28C13.7299 12.6495 13.584 13.0717 13.2392 13.2708L12.1999 13.8708C11.8173 14.0917 11.328 13.9606 11.1071 13.578C10.8862 13.1953 11.0173 12.7061 11.3999 12.4852L11.8383 12.2321L11.0825 10.3492C10.9746 10.0803 11.0205 9.77401 11.2025 9.54862C11.4352 9.26035 11.6242 8.93602 11.7595 8.58556C11.8638 8.31549 12.106 8.12282 12.3926 8.08188L14.3998 7.79509V6.78282L12.3926 6.49606C12.106 6.4551 11.8638 6.26246 11.7595 5.99234C11.6242 5.64195 11.4353 5.31757 11.2026 5.02936C11.0205 4.80392 10.9746 4.49767 11.0826 4.22876L11.8383 2.34598L10.9616 1.83983L9.7093 3.43519C9.53071 3.66273 9.24316 3.77612 8.95737 3.73176C8.7761 3.70364 8.58996 3.68897 8.39983 3.68897C8.20977 3.68897 8.02363 3.70362 7.84243 3.73173C7.55663 3.77608 7.2691 3.66269 7.09049 3.43514L5.83827 1.83981L4.96157 2.34597L5.71723 4.22861C5.82516 4.49751 5.77926 4.80378 5.59719 5.02922C5.36443 5.31746 5.17551 5.64189 5.04015 5.99232C4.93582 6.26243 4.69366 6.45509 4.40702 6.49604L2.3998 6.78281V7.28895C2.3998 7.73074 2.04163 8.08895 1.5998 8.08895C1.15798 8.08895 0.799805 7.73074 0.799805 7.28895V6.08895C0.799805 5.69082 1.09255 5.35329 1.48666 5.297L3.74204 4.97481C3.8389 4.78017 3.94757 4.59251 4.06707 4.41281L3.21826 2.29809C3.06996 1.92862 3.2159 1.50633 3.56068 1.30728L5.63913 0.107282L5.63915 0.107236Z" fill="#333333"/>
<path d="M3.72064 8.99259C4.0561 9.28012 4.09496 9.78518 3.80741 10.1206L1.85366 12.4L3.80741 14.6794C4.09494 15.0148 4.0561 15.5198 3.72064 15.8074C3.38519 16.0949 2.88014 16.0561 2.5926 15.7206L0.192598 12.9206C-0.0641992 12.6211 -0.0641992 12.179 0.192598 11.8794L2.5926 9.07938C2.88014 8.74391 3.38517 8.70506 3.72064 8.99259Z" fill="#333333"/>
<path d="M5.87948 8.99259C6.21493 8.70506 6.71996 8.74391 7.00749 9.07938L9.40749 11.8794C9.66429 12.179 9.66429 12.6211 9.40749 12.9206L7.00749 15.7206C6.71996 16.0561 6.21493 16.0949 5.87948 15.8074C5.54402 15.5198 5.50516 15.0148 5.79271 14.6794L7.74644 12.4L5.79271 10.1206C5.50518 9.78518 5.54402 9.28012 5.87948 8.99259Z" fill="#333333"/>
<path d="M7.43965 6.56942C7.65992 6.27621 8.00798 6.08907 8.40006 6.08907C9.06279 6.08907 9.60006 6.62634 9.60006 7.28907C9.60006 7.6606 9.43212 7.99227 9.16512 8.2136C8.82498 8.4956 8.77786 8.99993 9.05979 9.34007C9.34179 9.68021 9.84612 9.72733 10.1863 9.44533C10.8043 8.93307 11.2001 8.15693 11.2001 7.28907C11.2001 5.74267 9.94647 4.48907 8.40006 4.48907C7.48359 4.48907 6.66992 4.93022 6.16045 5.60834C5.89506 5.96157 5.96626 6.46307 6.3195 6.72848C6.67273 6.99389 7.17426 6.92268 7.43965 6.56942Z" fill="#333333"/>
</svg>
