<svg width="16" height="16" viewBox="0 0 16 16" fill="none" xmlns="http://www.w3.org/2000/svg">
<path d="M0.8 0H15.2075C15.4184 0.00198471 15.6199 0.0871455 15.7684 0.23696C15.9168 0.386775 16 0.589125 16 0.8V12.0056C15.9985 12.2155 15.9146 12.4165 15.7664 12.565C15.6181 12.7136 15.4174 12.798 15.2075 12.8H8.80753V14.4H11.2056C11.4177 14.4005 11.6209 14.4849 11.7708 14.6349C11.9207 14.7848 12.0051 14.988 12.0056 15.2C12.0056 15.4122 11.9214 15.6157 11.7713 15.7657C11.6213 15.9157 11.4178 16 11.2056 16H4.80565C4.59363 15.9995 4.39043 15.9151 4.24051 15.7651C4.09059 15.6152 4.00614 15.412 4.00565 15.2C4.00713 14.9883 4.09189 14.7857 4.2416 14.6359C4.39131 14.4862 4.59393 14.4015 4.80565 14.4H7.20376V12.8H0.803765C0.591915 12.801 0.388318 12.7179 0.237636 12.569C0.0869543 12.4201 0.00149306 12.2175 0 12.0056L0 0.8C0 0.587827 0.0842855 0.384344 0.234315 0.234315C0.384344 0.0842855 0.587827 0 0.8 0ZM4.56471 9.37035C4.49071 9.4448 4.40272 9.50387 4.30581 9.54419C4.20889 9.5845 4.10496 9.60525 4 9.60525C3.89504 9.60525 3.79111 9.5845 3.69419 9.54419C3.59728 9.50387 3.50929 9.4448 3.43529 9.37035C3.28722 9.21969 3.20426 9.01689 3.20426 8.80565C3.20426 8.5944 3.28722 8.39161 3.43529 8.24094L6.63529 5.04094C6.78596 4.89287 6.98875 4.8099 7.2 4.8099C7.41125 4.8099 7.61404 4.89287 7.76471 5.04094L8.8 6.07624L11.4353 3.44094C11.586 3.29287 11.7888 3.2099 12 3.2099C12.2112 3.2099 12.414 3.29287 12.5647 3.44094C12.6391 3.51494 12.6982 3.60293 12.7385 3.69984C12.7789 3.79675 12.7996 3.90068 12.7996 4.00565C12.7996 4.11061 12.7789 4.21454 12.7385 4.31145C12.6982 4.40837 12.6391 4.49635 12.5647 4.57035L9.36471 7.77035C9.29071 7.8448 9.20272 7.90387 9.10581 7.94419C9.00889 7.9845 8.90496 8.00525 8.8 8.00525C8.69504 8.00525 8.59111 7.9845 8.49419 7.94419C8.39728 7.90387 8.30929 7.8448 8.23529 7.77035L7.2 6.73506L4.56471 9.37035ZM14.4075 1.6H1.6V11.2H14.4L14.4075 1.6Z" fill="#333333"/>
</svg>
