<svg width="16" height="17" viewBox="0 0 16 17" fill="none" xmlns="http://www.w3.org/2000/svg">
<path d="M13.0893 0.146534C13.3019 0.296875 13.4284 0.541564 13.4284 0.80257V12.1532C13.4284 12.4141 13.3019 12.6588 13.0893 12.8092C12.8766 12.9595 12.6044 12.9968 12.3594 12.909L5.15934 10.3293C4.84095 10.2152 4.62842 9.91266 4.62842 9.5735V3.38224C4.62842 3.04306 4.84095 2.7405 5.15934 2.62643L12.3594 0.0467622C12.6044 -0.0410185 12.8766 -0.00380578 13.0893 0.146534ZM6.22843 3.94782V9.00788L11.8284 11.0143V1.9414L6.22843 3.94782Z" fill="#333333"/>
<path d="M13.8857 6.47736C13.8857 6.03413 14.2439 5.67479 14.6857 5.67479H15.2C15.6419 5.67479 16 6.03413 16 6.47736C16 6.92059 15.6419 7.27992 15.2 7.27992H14.6857C14.2439 7.27992 13.8857 6.92059 13.8857 6.47736Z" fill="#333333"/>
<path d="M13.9704 8.95576C14.168 8.55935 14.6485 8.39862 15.0437 8.59685L15.558 8.85484C15.9532 9.05302 16.1133 9.53516 15.9158 9.93157C15.7182 10.328 15.2376 10.4887 14.8424 10.2905L14.3281 10.0325C13.9329 9.83431 13.7728 9.35222 13.9704 8.95576Z" fill="#333333"/>
<path d="M15.9158 3.02353C16.1133 3.41999 15.9532 3.90206 15.558 4.10029L15.0437 4.35825C14.6485 4.55648 14.168 4.39578 13.9704 3.99932C13.7728 3.60287 13.9329 3.1208 14.3281 2.92257L14.8424 2.6646C15.2376 2.46637 15.7182 2.62708 15.9158 3.02352V3.02353Z" fill="#333333"/>
<path d="M0.356484 3.30056C0.659078 2.87893 1.15641 2.57999 1.82856 2.57999H5.42858C5.87039 2.57999 6.22858 2.93931 6.22858 3.38255C6.22858 3.8258 5.87039 4.18512 5.42858 4.18512H1.82856C1.73706 4.18512 1.69773 4.20337 1.68747 4.20866C1.67658 4.21431 1.6668 4.22191 1.65494 4.23845C1.64098 4.25788 1.62567 4.28833 1.61422 4.32856C1.60244 4.36993 1.6 4.40322 1.6 4.41442V8.54191C1.6 8.63368 1.61819 8.67316 1.62347 8.68343C1.62909 8.69434 1.63667 8.70418 1.65316 8.71606C1.67253 8.73008 1.70288 8.74544 1.74298 8.75695C1.78422 8.76876 1.81741 8.77118 1.82856 8.77118H5.42858C5.87039 8.77118 6.22858 9.13052 6.22858 9.57375C6.22858 10.017 5.87039 10.3763 5.42858 10.3763H1.82856C1.52911 10.3763 1.09775 10.2928 0.718266 10.0187C0.297984 9.71515 0 9.21623 0 8.54191V4.41442C0 4.114 0.08325 3.68126 0.356484 3.30056Z" fill="#333333"/>
<path d="M2.58393 8.81966C2.99917 8.6682 3.45817 8.88312 3.60917 9.29965L5.47482 14.4467H5.52837L4.89476 10.2089C4.82921 9.7706 5.13029 9.36193 5.56726 9.29617C6.00417 9.23042 6.41153 9.53244 6.47707 9.97081L7.24848 15.1302C7.28304 15.3612 7.21553 15.5959 7.06353 15.7729C6.91157 15.95 6.69024 16.0518 6.45734 16.0518H4.91448C4.57807 16.0518 4.2776 15.8407 4.16265 15.5235L2.10551 9.84817C1.95453 9.43164 2.16871 8.97113 2.58395 8.81965L2.58393 8.81966Z" fill="#333333"/>
</svg>
