<svg width="16" height="16" viewBox="0 0 16 16" fill="none" xmlns="http://www.w3.org/2000/svg">
<path d="M0.801411 14.4076H2.8388L0.0282187 4.09254C0.000678819 3.99131 -0.00654649 3.88563 0.00695997 3.78159C0.0204664 3.67755 0.0544371 3.57722 0.10691 3.48639C0.159384 3.39556 0.22932 3.31603 0.312681 3.25239C0.396043 3.18876 0.491178 3.14227 0.592593 3.11563L11.9045 0.026765C12.1095 -0.0274719 12.3277 0.00141021 12.5115 0.107139C12.6954 0.212868 12.8302 0.386906 12.8865 0.591456L15.968 11.9154C15.9961 12.0166 16.0037 12.1224 15.9904 12.2267C15.9772 12.3309 15.9433 12.4314 15.8907 12.5223C15.8382 12.6133 15.768 12.6929 15.6844 12.7564C15.6008 12.8199 15.5053 12.8661 15.4036 12.8923L9.85773 14.4076H15.2005C15.4121 14.409 15.6146 14.4938 15.7642 14.6435C15.9138 14.7932 15.9985 14.9958 16 15.2075C15.9975 15.4183 15.9123 15.6195 15.7626 15.7678C15.613 15.9161 15.4111 15.9995 15.2005 16H0.801411C0.590334 16.0005 0.387621 15.9175 0.237489 15.769C0.087356 15.6206 0.001986 15.4187 0 15.2075C0.000496827 14.9955 0.0848923 14.7923 0.234726 14.6424C0.384559 14.4925 0.587634 14.4081 0.79953 14.4076H0.801411ZM4.68995 8.53666C4.53458 8.39612 4.44054 8.20019 4.42804 7.991C4.41554 7.78181 4.48558 7.57606 4.6231 7.418C4.76062 7.25993 4.95464 7.16217 5.16344 7.14574C5.37224 7.1293 5.57915 7.1955 5.73968 7.3301L7.73945 9.06935L9.18424 4.74005C9.21185 4.63446 9.26087 4.53566 9.32824 4.44981C9.39561 4.36397 9.47991 4.2929 9.57589 4.24102C9.67188 4.18914 9.77749 4.15756 9.88619 4.14824C9.99488 4.13893 10.1043 4.15207 10.2077 4.18686C10.3111 4.22165 10.4063 4.27734 10.4873 4.35047C10.5683 4.4236 10.6333 4.51262 10.6785 4.61198C10.7237 4.71134 10.7479 4.81893 10.7498 4.92807C10.7516 5.03721 10.731 5.14556 10.6892 5.24639L8.89265 10.6561C8.86202 10.7795 8.80125 10.8933 8.71581 10.9874C8.64706 11.067 8.56331 11.1322 8.46934 11.1793C8.37538 11.2264 8.27305 11.2546 8.16821 11.2621C8.06337 11.2696 7.95808 11.2563 7.85836 11.2231C7.75864 11.1899 7.66645 11.1373 7.58707 11.0684L4.68995 8.53666ZM11.5584 1.77731L1.7759 4.44453L4.44162 14.2325L14.2241 11.5653L11.5584 1.77731Z" fill="#333333"/>
</svg>
