<svg width="16" height="16" viewBox="0 0 16 16" fill="none" xmlns="http://www.w3.org/2000/svg">
<path d="M8 14.4C4.46537 14.4 1.6 11.5346 1.6 8C1.6 4.46536 4.46537 1.6 8 1.6C11.5346 1.6 14.4 4.46537 14.4 8C14.4 11.5346 11.5346 14.4 8 14.4ZM8 16C12.4182 16 16 12.4182 16 8C16 3.58172 12.4182 0 8 0C3.58172 0 0 3.58172 0 8C0 12.4182 3.58172 16 8 16Z" fill="#333333"/>
<path d="M14.8002 8.80001H1.2002V7.20001H14.8002V8.80001Z" fill="#333333"/>
<path d="M2.65284 12.759C2.65297 12.7589 2.65311 12.7589 2.40013 12C2.14714 11.241 2.1473 11.241 2.14747 11.2409L2.14877 11.2404L2.15128 11.2397L2.18463 11.2289C2.20633 11.222 2.23711 11.2123 2.27656 11.2003C2.35549 11.1762 2.46922 11.1429 2.61463 11.1032C2.90531 11.0239 3.32327 10.9195 3.84322 10.8155C4.88155 10.6078 6.33539 10.4 8.00011 10.4C9.66483 10.4 11.1187 10.6078 12.157 10.8155C12.677 10.9195 13.0949 11.0239 13.3856 11.1032C13.531 11.1429 13.6447 11.1762 13.7237 11.2003C13.7631 11.2123 13.7939 11.222 13.8156 11.2289L13.8524 11.2408C13.8526 11.2409 13.853 11.241 13.6001 12C13.3471 12.7589 13.3473 12.7589 13.3474 12.759L13.345 12.7582L13.3291 12.7531C13.3141 12.7483 13.2902 12.7408 13.2578 12.7309C13.193 12.7112 13.0942 12.6822 12.9646 12.6468C12.7053 12.5761 12.3232 12.4805 11.8432 12.3845C10.8815 12.1922 9.53536 12 8.00009 12C6.46483 12 5.11866 12.1922 4.15699 12.3845C3.67694 12.4805 3.29491 12.5761 3.03558 12.6468C2.90599 12.6822 2.80722 12.7112 2.74239 12.7309C2.70999 12.7408 2.68608 12.7483 2.67105 12.7531L2.6528 12.759H2.65284ZM2.65284 12.759C2.65266 12.7591 2.65274 12.759 2.65284 12.759V12.759Z" fill="#333333"/>
<path d="M13.3475 3.241C13.3474 3.24105 13.3473 3.2411 13.6002 4.00005C13.8532 4.759 13.853 4.75905 13.8529 4.75911L13.8516 4.75955L13.849 4.76038L13.8414 4.76288L13.8158 4.77116C13.794 4.77808 13.7633 4.78775 13.7238 4.79975C13.6449 4.82378 13.5311 4.85721 13.3858 4.89685C13.095 4.97613 12.6771 5.0805 12.1571 5.1845C11.1188 5.39216 9.66496 5.60003 8.00024 5.60003C6.33552 5.60003 4.88166 5.39216 3.84333 5.1845C3.32338 5.08052 2.90541 4.97613 2.61474 4.89685C2.46933 4.85721 2.3556 4.82377 2.27668 4.79975C2.23721 4.78774 2.20643 4.77808 2.18474 4.77116L2.1514 4.76038L2.14796 4.75924C2.14779 4.75917 2.14726 4.759 2.40022 4.00005C2.65319 3.2411 2.65307 3.24107 2.65294 3.241L2.65538 3.2418L2.67119 3.24689C2.68622 3.25169 2.71012 3.25921 2.74254 3.26907C2.80737 3.2888 2.90612 3.31788 3.03572 3.35322C3.29504 3.42394 3.67708 3.51957 4.15713 3.61557C5.1188 3.80791 6.46496 4.00003 8.00026 4.00003C9.53555 4.00003 10.8817 3.80791 11.8434 3.61557C12.3234 3.51955 12.7055 3.42394 12.9647 3.35322C13.0943 3.31786 13.1931 3.2888 13.2579 3.26907C13.2903 3.25921 13.3143 3.25167 13.3293 3.24689L13.3475 3.241ZM13.3475 3.241C13.3476 3.24097 13.3477 3.24094 13.3475 3.241V3.241Z" fill="#333333"/>
<path d="M9.3923 2.07374C9.32261 1.90559 9.25678 1.7653 9.19709 1.65084C9.09494 1.45496 9.12309 1.19755 9.29286 1.05612L9.90742 0.543976C10.0771 0.402554 10.3301 0.425711 10.4467 0.613273C10.5992 0.858242 10.7409 1.14843 10.8705 1.46135C11.0693 1.94123 11.26 2.52432 11.426 3.18505C11.7581 4.50654 12.0001 6.17199 12.0001 8.00004C12.0001 9.82809 11.7581 11.4935 11.426 12.815C11.26 13.4757 11.0693 14.0589 10.8705 14.5387C10.7409 14.8517 10.5992 15.1418 10.4467 15.3868C10.3301 15.5744 10.0771 15.5975 9.90742 15.4561L9.29286 14.944C9.12309 14.8026 9.09494 14.5451 9.19709 14.3493C9.25678 14.2348 9.32261 14.0945 9.3923 13.9263C9.55599 13.5312 9.72366 13.0243 9.87422 12.425C10.1755 11.2266 10.4001 9.69199 10.4001 8.00005C10.4001 6.30812 10.1755 4.77357 9.87422 3.57504C9.72366 2.97577 9.55599 2.46887 9.3923 2.07374Z" fill="#333333"/>
<path d="M6.60783 13.9263C6.67748 14.0944 6.74333 14.2348 6.80303 14.3492C6.90517 14.5451 6.877 14.8025 6.70728 14.9439L6.0927 15.4561C5.92298 15.5975 5.67009 15.5743 5.55339 15.3867C5.40097 15.1418 5.2593 14.8516 5.12966 14.5387C4.93086 14.0588 4.74017 13.4757 4.57412 12.815C4.242 11.4935 4 9.82802 4 7.99999C4 6.17196 4.24202 4.50647 4.57412 3.185C4.74019 2.52427 4.93086 1.94118 5.12966 1.4613C5.2593 1.14838 5.40097 0.858192 5.55339 0.613224C5.67009 0.425645 5.923 0.402489 6.0927 0.543927L6.70728 1.05607C6.877 1.19749 6.90517 1.4549 6.80303 1.65079C6.74333 1.76525 6.6775 1.90554 6.60783 2.07369C6.44412 2.46882 6.27647 2.97572 6.12587 3.57499C5.82466 4.7735 5.6 6.30805 5.6 8C5.6 9.69196 5.82466 11.2265 6.12587 12.425C6.27648 13.0243 6.44414 13.5311 6.60783 13.9263Z" fill="#333333"/>
</svg>
